# Blender 4.0.2
# www.blender.org
mtllib muzzle.mtl
o MuzzleCone
v 0.000000 1.000000 0.284965
v -0.195090 0.980785 0.284965
v -0.382683 0.923880 0.284965
v -0.555570 0.831470 0.284965
v -0.707107 0.707107 0.284965
v -0.831470 0.555570 0.284965
v -0.923880 0.382683 0.284965
v -0.980785 0.195090 0.284965
v -1.000000 -0.000000 0.284965
v -0.980785 -0.195090 0.284965
v -0.923880 -0.382683 0.284965
v -0.831470 -0.555570 0.284965
v -0.707107 -0.707107 0.284965
v -0.555570 -0.831470 0.284965
v -0.382683 -0.923880 0.284965
v -0.195090 -0.980785 0.284965
v 0.000000 -1.000000 0.284965
v 0.195090 -0.980785 0.284965
v 0.382683 -0.923880 0.284965
v 0.555570 -0.831470 0.284965
v 0.707107 -0.707107 0.284965
v 0.831470 -0.555570 0.284965
v 0.923880 -0.382683 0.284965
v 0.980785 -0.195090 0.284965
v 1.000000 -0.000000 0.284965
v 0.980785 0.195090 0.284965
v 0.923880 0.382683 0.284965
v 0.831470 0.555570 0.284965
v 0.707107 0.707107 0.284965
v 0.555570 0.831470 0.284965
v 0.382683 0.923880 0.284965
v 0.195090 0.980785 0.284965
v -0.000000 0.101625 0.000000
v -0.019826 0.099672 0.000000
v -0.038890 0.093889 0.000000
v -0.056460 0.084498 0.000000
v -0.071859 0.071859 0.000000
v -0.084498 0.056460 0.000000
v -0.093889 0.038890 0.000000
v -0.099672 0.019826 0.000000
v -0.101625 0.000000 0.000000
v -0.099672 -0.019826 -0.000000
v -0.093889 -0.038890 -0.000000
v -0.084498 -0.056460 -0.000000
v -0.071859 -0.071859 -0.000000
v -0.056460 -0.084498 -0.000000
v -0.038890 -0.093889 -0.000000
v -0.019826 -0.099672 -0.000000
v -0.000000 -0.101625 -0.000000
v 0.019826 -0.099672 -0.000000
v 0.038890 -0.093889 -0.000000
v 0.056460 -0.084498 -0.000000
v 0.071859 -0.071859 -0.000000
v 0.084498 -0.056460 -0.000000
v 0.093889 -0.038890 -0.000000
v 0.099672 -0.019826 -0.000000
v 0.101625 0.000000 0.000000
v 0.099672 0.019826 0.000000
v 0.093889 0.038890 0.000000
v 0.084498 0.056460 0.000000
v 0.071859 0.071859 0.000000
v 0.056460 0.084498 0.000000
v 0.038890 0.093889 0.000000
v 0.019826 0.099672 0.000000
v -0.540229 0.107458 0.071332
v -0.550812 0.000000 0.071332
v 0.457984 -0.306015 0.071332
v 0.508884 -0.210787 0.071332
v -0.540229 -0.107458 0.071332
v 0.540229 -0.107458 0.071332
v -0.508884 -0.210787 0.071332
v 0.550812 0.000000 0.071332
v -0.457984 -0.306015 0.071332
v 0.540229 0.107458 0.071332
v -0.389483 -0.389483 0.071332
v 0.508884 0.210787 0.071332
v -0.306015 -0.457984 0.071332
v 0.457984 0.306015 0.071332
v -0.210787 -0.508884 0.071332
v -0.000000 0.550812 0.071332
v -0.107458 0.540229 0.071332
v 0.389483 0.389483 0.071332
v -0.107458 -0.540229 0.071332
v -0.210787 0.508884 0.071332
v 0.306015 0.457984 0.071332
v -0.000000 -0.550812 0.071332
v -0.306015 0.457984 0.071332
v 0.210787 0.508884 0.071332
v 0.107458 -0.540229 0.071332
v -0.389483 0.389483 0.071332
v 0.107458 0.540229 0.071332
v 0.210787 -0.508884 0.071332
v -0.457984 0.306015 0.071332
v 0.306015 -0.457984 0.071332
v -0.508884 0.210787 0.071332
v 0.389483 -0.389483 0.071332
vn -0.3043 -0.0000 -0.9526
vn -0.2984 0.0594 -0.9526
vn -0.1538 0.0306 -0.9876
vn -0.1568 -0.0000 -0.9876
vn 0.2811 -0.1164 -0.9526
vn 0.2530 -0.1691 -0.9526
vn 0.1304 -0.0871 -0.9876
vn 0.1449 -0.0600 -0.9876
vn -0.2984 -0.0594 -0.9526
vn -0.1538 -0.0306 -0.9876
vn 0.2984 -0.0594 -0.9526
vn 0.1538 -0.0306 -0.9876
vn -0.2811 -0.1164 -0.9526
vn -0.1449 -0.0600 -0.9876
vn 0.3043 -0.0000 -0.9526
vn 0.1568 -0.0000 -0.9876
vn -0.2530 -0.1691 -0.9526
vn -0.1304 -0.0871 -0.9876
vn 0.2984 0.0594 -0.9526
vn 0.1538 0.0306 -0.9876
vn -0.2152 -0.2152 -0.9526
vn -0.1109 -0.1109 -0.9876
vn 0.2811 0.1164 -0.9526
vn 0.1449 0.0600 -0.9876
vn -0.1691 -0.2530 -0.9526
vn -0.0871 -0.1304 -0.9876
vn 0.2530 0.1691 -0.9526
vn 0.1304 0.0871 -0.9876
vn -0.1164 -0.2811 -0.9526
vn -0.0600 -0.1449 -0.9876
vn -0.0594 0.2984 -0.9526
vn -0.0000 0.3043 -0.9526
vn -0.0000 0.1568 -0.9876
vn -0.0306 0.1538 -0.9876
vn 0.2152 0.2152 -0.9526
vn 0.1109 0.1109 -0.9876
vn -0.0594 -0.2984 -0.9526
vn -0.0306 -0.1538 -0.9876
vn -0.1164 0.2811 -0.9526
vn -0.0600 0.1449 -0.9876
vn 0.1691 0.2530 -0.9526
vn 0.0871 0.1304 -0.9876
vn -0.0000 -0.3043 -0.9526
vn -0.0000 -0.1568 -0.9876
vn -0.1691 0.2530 -0.9526
vn -0.0871 0.1304 -0.9876
vn 0.1164 0.2811 -0.9526
vn 0.0600 0.1449 -0.9876
vn 0.0594 -0.2984 -0.9526
vn 0.0306 -0.1538 -0.9876
vn -0.2152 0.2152 -0.9526
vn -0.1109 0.1109 -0.9876
vn 0.0594 0.2984 -0.9526
vn 0.0306 0.1538 -0.9876
vn 0.1164 -0.2811 -0.9526
vn 0.0600 -0.1449 -0.9876
vn -0.2530 0.1691 -0.9526
vn -0.1304 0.0871 -0.9876
vn 0.1691 -0.2530 -0.9526
vn 0.0871 -0.1304 -0.9876
vn -0.2811 0.1164 -0.9526
vn -0.1449 0.0600 -0.9876
vn 0.2152 -0.2152 -0.9526
vn 0.1109 -0.1109 -0.9876
vn 0.3571 -0.2386 -0.9031
vn 0.3037 -0.3037 -0.9031
vn -0.4212 0.0838 -0.9031
vn -0.3968 0.1644 -0.9031
vn 0.2386 -0.3571 -0.9031
vn -0.3571 0.2386 -0.9031
vn 0.1644 -0.3968 -0.9031
vn -0.0000 0.4295 -0.9031
vn 0.0838 0.4212 -0.9031
vn -0.3037 0.3037 -0.9031
vn 0.0838 -0.4212 -0.9031
vn 0.1644 0.3968 -0.9031
vn -0.2386 0.3571 -0.9031
vn -0.0000 -0.4295 -0.9031
vn 0.2386 0.3571 -0.9031
vn -0.1644 0.3968 -0.9031
vn -0.0838 -0.4212 -0.9031
vn 0.3037 0.3037 -0.9031
vn -0.0838 0.4212 -0.9031
vn -0.1644 -0.3968 -0.9031
vn 0.3571 0.2386 -0.9031
vn -0.2386 -0.3571 -0.9031
vn 0.3968 0.1644 -0.9031
vn -0.3037 -0.3037 -0.9031
vn 0.4212 0.0838 -0.9031
vn -0.3571 -0.2386 -0.9031
vn 0.4295 -0.0000 -0.9031
vn -0.3968 -0.1644 -0.9031
vn 0.4212 -0.0838 -0.9031
vn -0.4212 -0.0838 -0.9031
vn 0.3968 -0.1644 -0.9031
vn -0.4295 -0.0000 -0.9031
vt 0.030811 0.499664
vt 0.062153 0.499664
vt 0.062153 -0.002575
vt 0.030811 -0.002575
vt 0.594967 0.499665
vt 0.626309 0.499665
vt 0.626309 -0.002575
vt 0.594967 -0.002575
vt -0.000531 0.499664
vt -0.000531 -0.002575
vt 0.563625 0.499665
vt 0.563625 -0.002575
vt 0.971070 0.499669
vt 1.002412 0.499669
vt 1.002412 -0.002570
vt 0.971070 -0.002570
vt 0.532283 0.499665
vt 0.532283 -0.002575
vt 0.939729 0.499669
vt 0.939728 -0.002570
vt 0.500941 0.499664
vt 0.500941 -0.002575
vt 0.908387 0.499668
vt 0.908387 -0.002571
vt 0.469599 0.499664
vt 0.469599 -0.002575
vt 0.877045 0.499668
vt 0.877045 -0.002571
vt 0.438257 0.499665
vt 0.438257 -0.002575
vt 0.845703 0.499668
vt 0.845703 -0.002571
vt 0.250205 0.499667
vt 0.281547 0.499667
vt 0.281547 -0.002573
vt 0.250205 -0.002573
vt 0.406915 0.499665
vt 0.406915 -0.002575
vt 0.814361 0.499668
vt 0.814360 -0.002571
vt 0.218863 0.499667
vt 0.218863 -0.002573
vt 0.375573 0.499666
vt 0.375573 -0.002573
vt 0.783019 0.499667
vt 0.783019 -0.002573
vt 0.187521 0.499667
vt 0.187521 -0.002573
vt 0.344231 0.499667
vt 0.344231 -0.002573
vt 0.751677 0.499667
vt 0.751677 -0.002573
vt 0.156179 0.499666
vt 0.156179 -0.002573
vt 0.312889 0.499667
vt 0.312889 -0.002573
vt 0.720335 0.499667
vt 0.720335 -0.002573
vt 0.124837 0.499665
vt 0.124837 -0.002575
vt 0.688993 0.499666
vt 0.688993 -0.002573
vt 0.093495 0.499665
vt 0.093495 -0.002575
vt 0.657651 0.499665
vt 0.657651 -0.002575
vt 0.626309 1.001906
vt 0.657651 1.001906
vt 0.062153 1.001904
vt 0.093495 1.001906
vt 0.688993 1.001906
vt 0.124837 1.001906
vt 0.720335 1.001908
vt 0.281547 1.001908
vt 0.312889 1.001908
vt 0.156179 1.001906
vt 0.751677 1.001908
vt 0.344231 1.001908
vt 0.187521 1.001908
vt 0.783019 1.001908
vt 0.375573 1.001906
vt 0.218863 1.001908
vt 0.814361 1.001908
vt 0.406915 1.001906
vt 0.250206 1.001908
vt 0.845703 1.001908
vt 0.438257 1.001906
vt 0.877045 1.001908
vt 0.469599 1.001904
vt 0.908387 1.001908
vt 0.500941 1.001904
vt 0.939729 1.001908
vt 0.532283 1.001906
vt 0.971071 1.001908
vt 0.563625 1.001906
vt 1.002413 1.001908
vt 0.594967 1.001906
vt -0.000531 1.001904
vt 0.030811 1.001904
s 1
f 66/1/1 65/2/2 40/3/3 41/4/4
f 68/5/5 67/6/6 54/7/7 55/8/8
f 69/9/9 66/1/1 41/4/4 42/10/10
f 70/11/11 68/5/5 55/8/8 56/12/12
f 71/13/13 69/14/9 42/15/10 43/16/14
f 72/17/15 70/11/11 56/12/12 57/18/16
f 73/19/17 71/13/13 43/16/14 44/20/18
f 74/21/19 72/17/15 57/18/16 58/22/20
f 75/23/21 73/19/17 44/20/18 45/24/22
f 76/25/23 74/21/19 58/22/20 59/26/24
f 77/27/25 75/23/21 45/24/22 46/28/26
f 78/29/27 76/25/23 59/26/24 60/30/28
f 79/31/29 77/27/25 46/28/26 47/32/30
f 81/33/31 80/34/32 33/35/33 34/36/34
f 82/37/35 78/29/27 60/30/28 61/38/36
f 83/39/37 79/31/29 47/32/30 48/40/38
f 84/41/39 81/33/31 34/36/34 35/42/40
f 85/43/41 82/37/35 61/38/36 62/44/42
f 86/45/43 83/39/37 48/40/38 49/46/44
f 87/47/45 84/41/39 35/42/40 36/48/46
f 88/49/47 85/43/41 62/44/42 63/50/48
f 89/51/49 86/45/43 49/46/44 50/52/50
f 90/53/51 87/47/45 36/48/46 37/54/52
f 91/55/53 88/49/47 63/50/48 64/56/54
f 92/57/55 89/51/49 50/52/50 51/58/56
f 93/59/57 90/53/51 37/54/52 38/60/58
f 80/34/32 91/55/53 64/56/54 33/35/33
f 94/61/59 92/57/55 51/58/56 52/62/60
f 95/63/61 93/59/57 38/60/58 39/64/62
f 96/65/63 94/61/59 52/62/60 53/66/64
f 65/2/2 95/63/61 39/64/62 40/3/3
f 67/6/6 96/65/63 53/66/64 54/7/7
f 22/67/65 21/68/66 96/65/63 67/6/6
f 8/69/67 7/70/68 95/63/61 65/2/2
f 21/68/66 20/71/69 94/61/59 96/65/63
f 7/70/68 6/72/70 93/59/57 95/63/61
f 20/71/69 19/73/71 92/57/55 94/61/59
f 1/74/72 32/75/73 91/55/53 80/34/32
f 6/72/70 5/76/74 90/53/51 93/59/57
f 19/73/71 18/77/75 89/51/49 92/57/55
f 32/75/73 31/78/76 88/49/47 91/55/53
f 5/76/74 4/79/77 87/47/45 90/53/51
f 18/77/75 17/80/78 86/45/43 89/51/49
f 31/78/76 30/81/79 85/43/41 88/49/47
f 4/79/77 3/82/80 84/41/39 87/47/45
f 17/80/78 16/83/81 83/39/37 86/45/43
f 30/81/79 29/84/82 82/37/35 85/43/41
f 3/82/80 2/85/83 81/33/31 84/41/39
f 16/83/81 15/86/84 79/31/29 83/39/37
f 29/84/82 28/87/85 78/29/27 82/37/35
f 2/85/83 1/74/72 80/34/32 81/33/31
f 15/86/84 14/88/86 77/27/25 79/31/29
f 28/87/85 27/89/87 76/25/23 78/29/27
f 14/88/86 13/90/88 75/23/21 77/27/25
f 27/89/87 26/91/89 74/21/19 76/25/23
f 13/90/88 12/92/90 73/19/17 75/23/21
f 26/91/89 25/93/91 72/17/15 74/21/19
f 12/92/90 11/94/92 71/13/13 73/19/17
f 25/93/91 24/95/93 70/11/11 72/17/15
f 11/94/92 10/96/94 69/14/9 71/13/13
f 24/95/93 23/97/95 68/5/5 70/11/11
f 10/98/94 9/99/96 66/1/1 69/9/9
f 23/97/95 22/67/65 67/6/6 68/5/5
f 9/99/96 8/69/67 65/2/2 66/1/1
o MuzzlePlanes
v -0.000000 1.000000 2.000000
v 0.000000 -1.000000 2.000000
v -0.000000 1.000000 0.000000
v 0.000000 -1.000000 0.000000
v -1.000000 0.000000 2.000000
v 1.000000 0.000000 2.000000
v -1.000000 0.000000 0.000000
v 1.000000 0.000000 0.000000
vn 1.0000 -0.0000 -0.0000
vn -0.0000 1.0000 -0.0000
vt 1.000000 1.000000
vt 0.000000 1.000000
vt 0.000000 0.000000
vt 1.000000 0.000000
s 0
f 97/100/97 98/101/97 100/102/97 99/103/97
f 101/100/98 102/101/98 104/102/98 103/103/98
